<?xml version="1.0" standalone="no"?><!DOCTYPE svg PUBLIC "-//W3C//DTD SVG 1.1//EN" "http://www.w3.org/Graphics/SVG/1.1/DTD/svg11.dtd"><svg t="1770644275573" class="icon" viewBox="0 0 1024 1024" version="1.1" xmlns="http://www.w3.org/2000/svg" p-id="8908" xmlns:xlink="http://www.w3.org/1999/xlink" width="200" height="200"><path d="M845.59 531.872c-9.479-3.268-19.261-4.863-28.677-4.855l-22.726-107.579c1.92-0.936 4.076-1.793 6.117-2.743 27.729-13.517 50.517-37.741 61.4-69.324 21.641-62.797-12.021-132.071-74.817-153.714-63.032-21.72-132.468 12.03-154.108 74.826-10.703 31.062-8.072 63.436 5.252 90.953l0.522 1.52c0.802 1.93 2.089 3.971 3.013 5.889l-81.5 68.511c-14.733-10.699-32.809-17.044-52.385-17.044-4.132 0-8.188 0.299-12.164 0.838-20.116 1.667-39.102 10.186-53.696 23.946l-91.105-54.369c6.373-14.795 9.697-31.083 9.697-48.127 0-16.799-3.324-33.089-9.697-47.635l93.674-56.148 0.577 0.385c16.151 16.288 38.347 26.316 62.714 26.316 48.814 0 88.866-40.107 88.866-88.607 0-49.131-40.052-88.865-88.866-88.865-48.567 0-88.592 39.734-88.592 88.865 0 10.027 1.677 19.794 4.753 28.694l-94.306 56.535c-1.51-1.512-3.021-3.27-4.586-4.89-21.813-21.813-52.14-35.465-85.544-35.465-66.423 0-120.952 54.393-120.952 120.815 0 66.669 54.529 121.321 120.952 121.321 32.853 0 62.604-13.033 84.278-34.596l1.266-0.99c1.564-1.387 3.076-3.27 4.586-4.766l90.431 54.196a90.634 90.634 0 0 0-1.02 2.791c-13.805 40.057 2.838 83.618 37.77 104.865 14.78 10.036 31.855 15.099 49.108 15.056l0.399 0.223 0.766 0.048 26.71 105.767c-14.967 5.953-28.837 15.122-40.889 27.174-11.879 11.879-21.046 25.748-26.826 40.54l-105.94-26.534-0.135-0.681c0.096-22.938-8.507-45.724-25.737-62.954-34.518-34.518-91.198-34.477-125.493-0.184-34.741 34.741-34.517 91.158 0.001 125.675 34.342 34.344 90.739 34.547 125.48-0.192 7.09-7.09 12.811-15.183 16.929-23.65l106.66 26.708c-0.001 2.136-0.175 4.448-0.215 6.7 0 30.849 11.79 61.947 35.411 85.565 46.969 46.969 123.987 47.066 170.955 0.098 47.143-47.141 47.229-124.345 0.263-171.313-23.231-23.229-53.485-35.05-84.06-35.129l-1.596-0.195c-2.085-0.127-4.485 0.137-6.612 0.127L545.18 589.618c8.558-4.209 16.571-9.85 23.748-17.025a88.603 88.603 0 0 0 16.276-22.375 87.964 87.964 0 0 0 11.344-43.302c0-15.179-3.872-29.493-10.603-42.036l79.77-67.313c11.91 10.846 26.229 19.295 42.343 24.85 15.883 5.473 32.365 7.637 48.195 6.352l22.565 106.854-0.553 0.42c-20.661 9.965-37.374 27.684-45.313 50.721-15.902 46.15 8.969 97.082 54.82 112.885 46.45 16.006 97.065-8.916 112.969-55.066 15.824-45.918-8.701-96.703-55.151-112.711zM507.682 125.147c27.391 0 49.639 21.938 49.639 49.763 0 27.198-22.361 49.255-49.639 49.255-13.46 0-25.985-5.26-34.888-14.546l-1.017-0.617c-2.059-2.514-4.147-5.151-5.962-7.651l-0.301-0.879c-4.586-7.388-7.335-16.414-7.335-25.562 0.001-27.825 22.364-49.763 49.503-49.763zM297.258 398.508l-0.822 1c-14.725 14.161-34.888 23.064-57.028 23.064-45.051 0-81.585-36.73-81.585-81.973 0-44.874 36.534-81.588 81.585-81.588 22.827 0 43.128 9.396 57.851 23.926 14.781 14.546 23.929 35.48 23.929 57.663-0.001 22.69-9.149 43.113-23.93 57.908z m22.561 357.112l-0.409 0.834c-1.981 8.467-6.42 16.793-12.888 23.262-19.675 19.675-51 19.375-70.19 0.185-19.368-19.368-19.588-50.612 0.088-70.288 19.231-19.232 50.64-19.018 69.928 0.271 9.518 9.518 14.655 22.092 14.384 34.955l0.282 1.154c-0.321 3.235-0.709 6.574-1.195 9.627z m187.863-199.2c-27.139 0-49.502-22.309-49.502-49.504 0-7.992 1.966-15.544 5.369-22.225a49.475 49.475 0 0 1 7.635-9.843c16.744-16.743 42.631-18.869 61.794-6.583a50.164 50.164 0 0 1 14.286 17.606c5.629 11.358 6.888 25.038 2.502 37.762a49.39 49.39 0 0 1-25.324 28.467 49.568 49.568 0 0 1-12.485 4.123 49.553 49.553 0 0 1-4.275 0.197z m70.735 178.977l1.29-0.125c20.424 0.398 40.978 8.359 56.635 24.018 31.854 31.854 31.717 83.657-0.275 115.649-31.73 31.73-83.524 31.859-115.381 0.004-16.141-16.143-23.852-37.141-23.988-57.825-0.166-20.736 8.17-42.008 23.854-57.693 16.043-16.044 36.952-24.017 57.865-24.028z m142.419-350.068c-21.449-7.394-37.778-22.694-46.949-41.49l-0.679-1.103c-8.591-18.533-10.44-40.498-3.227-61.434 14.679-42.59 61.305-65.166 104.079-50.425 42.427 14.619 65.234 61.121 50.558 103.713-7.437 21.584-22.936 37.715-41.469 46.9-18.567 9.235-41.34 11.064-62.313 3.839z m142.938 246.512c-8.924 25.898-36.912 39.785-63.221 30.719-25.714-8.859-39.282-37.188-30.396-62.979 4.386-12.725 13.439-22.852 25.119-28.242l0.914-0.76c3.047-1.129 6.221-2.246 9.178-3.145h0.929c8.479-1.928 17.907-1.586 26.556 1.395 26.308 9.065 39.764 37.356 30.921 63.012z" fill="#13227a" p-id="8909"></path></svg>